# xmcd CD database file
#
# Track frame offsets:
#	150
#	23564
#	40133
#	64476
#	220000
#	238840
#	251509
#	261503
#	293444
#
# Disc length: 4276 seconds
#
# Revision: 0
# Processed by: cddbd v1.5.2PL0 Copyright (c) Steve Scherf et al.
# Submitted via: CDex 1.51
#
DISCID=8010b209
DTITLE=Graham Collier - Down Another Road, the early Collier
DYEAR=2012
DGENRE=Jazz
TTITLE0=Down Another Road (1969)
TTITLE1=The Barley Mow (1963)
TTITLE2=Crumbling Cookie (1967)
TTITLE3=Workpoints (1968)
TTITLE4=Song Three Live (1970) Excerpt
TTITLE5=Mosaics (1970) Excerpt
TTITLE6=The Alternate Mosaics (1970) Excerpt
TTITLE7=Adam (1975)
TTITLE8=Aberdeen Angus (1969)
EXTD=YEAR: 2012
EXTT0=
EXTT1=
EXTT2=
EXTT3=
EXTT4=
EXTT5=
EXTT6=
EXTT7=
EXTT8=
PLAYORDER=
